<svg width="26" height="14" viewBox="0 0 26 14" fill="none" xmlns="http://www.w3.org/2000/svg">
<path d="M19.2201 10.4594C19.0142 10.4595 18.8129 10.3988 18.6417 10.2852C18.4705 10.1715 18.337 10.0099 18.2582 9.82084C18.1793 9.63177 18.1587 9.42371 18.1988 9.22297C18.2389 9.02224 18.338 8.83783 18.4836 8.69309C18.6292 8.54834 18.8147 8.44975 19.0166 8.40979C19.2186 8.36982 19.4279 8.39028 19.6182 8.46856C19.8084 8.54685 19.971 8.67945 20.0855 8.8496C20.1999 9.01975 20.261 9.2198 20.261 9.42446C20.2607 9.6988 20.151 9.96181 19.9558 10.1558C19.7607 10.3498 19.4961 10.459 19.2201 10.4594ZM7.71366 10.4594C7.50775 10.4595 7.30645 10.3988 7.13522 10.2852C6.96399 10.1715 6.83052 10.0099 6.75169 9.82084C6.67285 9.63177 6.65219 9.42371 6.69233 9.22297C6.73246 9.02224 6.83158 8.83783 6.97715 8.69309C7.12273 8.54834 7.30822 8.44975 7.51016 8.40979C7.71211 8.36982 7.92144 8.39028 8.11169 8.46856C8.30195 8.54685 8.46457 8.67945 8.579 8.8496C8.69343 9.01975 8.75453 9.2198 8.75457 9.42446C8.75431 9.69881 8.64457 9.96186 8.44943 10.1559C8.25429 10.3499 7.98968 10.4591 7.71366 10.4594ZM19.5935 4.22672L21.6739 0.645215C21.7023 0.596295 21.7208 0.542283 21.7283 0.486264C21.7357 0.430245 21.732 0.373315 21.7173 0.318725C21.7026 0.264135 21.6773 0.212954 21.6427 0.168104C21.6081 0.123254 21.565 0.0856138 21.5158 0.057332C21.4666 0.0290503 21.4122 0.010681 21.3559 0.00327297C21.2995 -0.00413504 21.2422 -0.000436695 21.1873 0.0141569C21.1324 0.0287504 21.0809 0.0539533 21.0358 0.0883267C20.9906 0.1227 20.9528 0.165571 20.9243 0.214491L18.8176 3.84123C17.2066 3.11042 15.3973 2.70349 13.4667 2.70349C11.5361 2.70349 9.72701 3.11101 8.11601 3.84123L6.00948 0.214491C5.98107 0.165558 5.94323 0.122667 5.89814 0.0882671C5.85305 0.0538673 5.80158 0.028632 5.74668 0.0140023C5.69177 -0.000627499 5.63451 -0.00436527 5.57815 0.00300235C5.52179 0.01037 5.46744 0.0286987 5.41821 0.0569421C5.36898 0.0851854 5.32583 0.12279 5.29122 0.16761C5.25661 0.212429 5.23122 0.263585 5.2165 0.318157C5.20178 0.372729 5.19802 0.429648 5.20543 0.485664C5.21285 0.54168 5.23129 0.595697 5.2597 0.64463L7.34034 4.22672C3.76779 6.15806 1.32423 9.75282 0.966797 14H25.967C25.6092 9.75282 23.1658 6.15806 19.5935 4.22672Z" fill="white"/>
</svg>
