<svg width="22" height="27" viewBox="0 0 22 27" fill="none" xmlns="http://www.w3.org/2000/svg">
<path d="M21.2721 9.21177C19.473 10.3235 18.3617 12.2294 18.3617 14.3471C18.3617 16.7294 19.7905 18.9 21.96 19.8C21.5367 21.1765 20.9017 22.4471 20.108 23.6118C18.9438 25.2529 17.7267 26.9471 15.9276 26.9471C14.1285 26.9471 13.5993 25.8882 11.4827 25.8882C9.41899 25.8882 8.67817 27 6.98487 27C5.29157 27 4.12742 25.4647 2.80453 23.5588C1.05831 20.9118 0.0529157 17.8412 0 14.6118C0 9.37059 3.3866 6.56471 6.7732 6.56471C8.57234 6.56471 10.054 7.72941 11.1652 7.72941C12.2235 7.72941 13.9168 6.51177 15.9276 6.51177C18.0442 6.45882 20.055 7.46471 21.2721 9.21177ZM14.9751 4.28824C15.8747 3.22941 16.3509 1.90588 16.4039 0.529412C16.4039 0.370588 16.4039 0.158824 16.3509 0C14.8164 0.158824 13.3877 0.9 12.3823 2.06471C11.4827 3.07059 10.9535 4.34118 10.9006 5.71765C10.9006 5.87647 10.9006 6.03529 10.9535 6.19412C11.0594 6.19412 11.2181 6.24706 11.324 6.24706C12.7527 6.14118 14.0756 5.4 14.9751 4.28824Z" fill="white"/>
</svg>
