<svg width="24" height="20" viewBox="0 0 24 20" fill="none" xmlns="http://www.w3.org/2000/svg">
<g clip-path="url(#clip0_960_1614)">
<mask id="mask0_960_1614" style="mask-type:luminance" maskUnits="userSpaceOnUse" x="0" y="0" width="24" height="20">
<path d="M23.108 0H0.885742V20H23.108V0Z" fill="white"/>
</mask>
<g mask="url(#mask0_960_1614)">
<path d="M14.6405 0H9.0331C8.94136 0.00189218 8.8539 0.0391794 8.78901 0.104064C8.72413 0.168949 8.68684 0.256407 8.68495 0.348148C8.55162 5.80741 5.78865 10.9852 1.02569 14.6593C0.952323 14.7152 0.903578 14.7975 0.889756 14.8887C0.875933 14.9799 0.898116 15.073 0.951617 15.1481L4.24051 19.8519C4.26638 19.8904 4.29984 19.9232 4.33885 19.9484C4.37787 19.9735 4.4216 19.9904 4.46738 19.998C4.51316 20.0056 4.56001 20.0038 4.60506 19.9927C4.65012 19.9816 4.69243 19.9614 4.72939 19.9333C7.6152 17.7452 10.029 14.9963 11.8257 11.8519C13.6224 14.9963 16.0362 17.7452 18.922 19.9333C18.9583 19.9612 19.0001 19.9813 19.0445 19.9924C19.089 20.0034 19.1353 20.0052 19.1805 19.9975C19.2257 19.9899 19.2688 19.973 19.3072 19.9479C19.3455 19.9229 19.3783 19.8902 19.4035 19.8519L22.6998 15.1481C22.7533 15.073 22.7754 14.9799 22.7616 14.8887C22.7478 14.7975 22.6991 14.7152 22.6257 14.6593C17.8627 10.9852 15.0998 5.80741 14.959 0.348148C14.9593 0.260725 14.9268 0.176382 14.8677 0.111881C14.8087 0.0473788 14.7276 0.00743974 14.6405 0Z" fill="#FF875B"/>
</g>
</g>
<defs>
<clipPath id="clip0_960_1614">
<rect width="22.2222" height="20" fill="white" transform="translate(0.888672)"/>
</clipPath>
</defs>
</svg>
