<svg width="24" height="24" viewBox="0 0 24 24" fill="none" xmlns="http://www.w3.org/2000/svg">
<path d="M15.5312 18.9698C15.6009 19.0395 15.6562 19.1222 15.6939 19.2132C15.7316 19.3043 15.751 19.4019 15.751 19.5004C15.751 19.599 15.7316 19.6965 15.6939 19.7876C15.6562 19.8786 15.6009 19.9614 15.5312 20.031C15.4615 20.1007 15.3788 20.156 15.2878 20.1937C15.1967 20.2314 15.0991 20.2508 15.0006 20.2508C14.902 20.2508 14.8045 20.2314 14.7134 20.1937C14.6224 20.156 14.5396 20.1007 14.47 20.031L6.96996 12.531C6.90023 12.4614 6.84491 12.3787 6.80717 12.2876C6.76943 12.1966 6.75 12.099 6.75 12.0004C6.75 11.9019 6.76943 11.8043 6.80717 11.7132C6.84491 11.6222 6.90023 11.5394 6.96996 11.4698L14.47 3.96979C14.6107 3.82906 14.8016 3.75 15.0006 3.75C15.1996 3.75 15.3905 3.82906 15.5312 3.96979C15.6719 4.11052 15.751 4.30139 15.751 4.50042C15.751 4.69944 15.6719 4.89031 15.5312 5.03104L8.5609 12.0004L15.5312 18.9698Z" fill="#08090A"/>
</svg>
