<svg width="192" height="190" viewBox="0 0 192 190" fill="none" xmlns="http://www.w3.org/2000/svg">
<path d="M40.3233 130.819V157.298C40.321 160.541 41.2755 163.712 43.0688 166.422C44.8621 169.131 47.4161 171.261 50.415 172.547C53.4139 173.833 56.7264 174.22 59.9442 173.659C63.1619 173.098 66.144 171.615 68.5219 169.393L89.3118 149.948H96.2419C140.212 149.948 175.898 119.912 175.898 82.7612C175.898 45.6107 140.212 15.5742 96.2419 15.5742C52.2719 15.5742 16.5859 45.6898 16.5859 82.7612C16.7649 91.9998 19.0002 101.084 23.1314 109.365C27.2627 117.646 33.1879 124.918 40.4828 130.661L40.3233 130.819Z" fill="#419057" stroke="#0F2846" stroke-width="8.82345" stroke-linecap="round" stroke-linejoin="round"/>
<path d="M135.914 75.0898H56.2578" stroke="#0F2846" stroke-width="8.82345" stroke-linecap="round" stroke-linejoin="round"/>
<path d="M104.052 98.8047H56.2578" stroke="#0F2846" stroke-width="8.82345" stroke-linecap="round" stroke-linejoin="round"/>
</svg>
