<svg width="192" height="191" viewBox="0 0 192 191" fill="none" xmlns="http://www.w3.org/2000/svg">
<path d="M96.0882 38.9617C96.0882 45.1271 89.4767 50.6601 79.2807 54.059C71.2153 56.7004 62.761 57.9828 54.2687 57.8531C45.7764 57.9828 37.3221 56.7004 29.2567 54.059C19.0607 50.6601 12.4492 45.1271 12.4492 38.9617C12.4492 28.528 31.1684 20.0703 54.2687 20.0703C77.369 20.0703 96.0882 28.528 96.0882 38.9617Z" fill="#419057" stroke="#0F2846" stroke-width="8.82345" stroke-miterlimit="10" stroke-linecap="square"/>
<path d="M96.0882 38.9609V69.1555C96.0882 75.3209 89.4767 80.8539 79.2807 84.2528C71.2061 86.8561 62.7583 88.1375 54.2687 88.0469C45.7791 88.1375 37.3313 86.8561 29.2567 84.2528C19.0607 80.8539 12.4492 75.3209 12.4492 69.1555V38.9609C12.4492 45.1263 19.0607 50.6594 29.2567 54.0582C37.3221 56.6996 45.7764 57.982 54.2687 57.8523C62.761 57.982 71.2153 56.6996 79.2807 54.0582C89.4767 50.6594 96.0882 45.1263 96.0882 38.9609Z" fill="#419057" stroke="#0F2846" stroke-width="8.82345" stroke-miterlimit="10" stroke-linecap="square"/>
<path d="M96.0882 69.1562V99.3508C96.0882 105.516 89.4767 111.049 79.2807 114.448C71.201 117.022 62.7537 118.277 54.2687 118.163C45.7837 118.277 37.3364 117.022 29.2567 114.448C19.0607 111.365 12.4492 105.516 12.4492 99.3508V69.1562C12.4492 75.3216 19.0607 80.8547 29.2567 84.2535C37.3313 86.8568 45.7791 88.1383 54.2687 88.0476C62.7583 88.1383 71.2061 86.8568 79.2807 84.2535C89.4767 80.8547 96.0882 75.3216 96.0882 69.1562Z" fill="#419057" stroke="#0F2846" stroke-width="8.82345" stroke-miterlimit="10" stroke-linecap="square"/>
<path d="M96.0882 99.3516V129.546C96.0882 139.901 77.369 148.358 54.2687 148.358C31.1684 148.358 12.4492 139.901 12.4492 129.546V99.3516C12.4492 105.517 19.0607 111.05 29.2567 114.449C37.3364 117.023 45.7837 118.277 54.2687 118.164C62.7537 118.277 71.201 117.023 79.2807 114.449C89.4767 111.366 96.0882 105.517 96.0882 99.3516Z" fill="#419057" stroke="#0F2846" stroke-width="8.82345" stroke-miterlimit="10" stroke-linecap="square"/>
<path d="M179.729 99.3516V129.546C179.729 139.901 161.01 148.358 137.909 148.358C114.809 148.358 96.0898 139.901 96.0898 129.546V99.3516C96.0898 105.517 102.701 111.05 112.897 114.449C120.977 117.023 129.424 118.277 137.909 118.164C146.394 118.277 154.842 117.023 162.921 114.449C173.117 111.366 179.729 105.517 179.729 99.3516Z" fill="#419057" stroke="#0F2846" stroke-width="8.82345" stroke-miterlimit="10" stroke-linecap="square"/>
<path d="M96.0882 99.3516V159.662C96.0882 170.095 77.369 178.553 54.2687 178.553C31.1684 178.553 12.4492 170.095 12.4492 159.662V99.3516" fill="#419057"/>
<path d="M96.0882 99.3516V159.662C96.0882 170.095 77.369 178.553 54.2687 178.553C31.1684 178.553 12.4492 170.095 12.4492 159.662V99.3516" stroke="#0F2846" stroke-width="8.82345" stroke-miterlimit="10" stroke-linecap="square"/>
<path d="M179.729 107.256V159.662C179.729 170.095 161.01 178.553 137.909 178.553C114.809 178.553 96.0898 170.095 96.0898 159.662V99.3516" fill="#419057"/>
<path d="M179.729 107.256V159.662C179.729 170.095 161.01 178.553 137.909 178.553C114.809 178.553 96.0898 170.095 96.0898 159.662V99.3516" stroke="#0F2846" stroke-width="8.82345" stroke-miterlimit="10" stroke-linecap="square"/>
<path d="M179.729 54.0583C179.729 62.2658 177.276 70.289 172.681 77.1133C168.086 83.9375 161.554 89.2564 153.913 92.3973C146.271 95.5381 137.863 96.3599 129.751 94.7587C121.639 93.1575 114.187 89.2053 108.339 83.4017C102.49 77.5981 98.507 70.2039 96.8934 62.1541C95.2798 54.1043 96.108 45.7605 99.2732 38.1778C102.438 30.5951 107.799 24.114 114.676 19.5542C121.553 14.9943 129.638 12.5605 137.909 12.5605C143.416 12.5077 148.878 13.545 153.976 15.6118C159.074 17.6786 163.705 20.7333 167.599 24.5973C171.493 28.4613 174.571 33.0569 176.654 38.1155C178.737 43.1741 179.782 48.5941 179.729 54.0583Z" fill="#419057" stroke="#0F2846" stroke-width="8.82345" stroke-miterlimit="10" stroke-linecap="square"/>
<path d="M179.729 99.3489C179.729 105.514 173.117 111.047 162.921 114.446C154.842 117.02 146.394 118.275 137.909 118.161C129.424 118.275 120.977 117.02 112.897 114.446C102.701 111.364 96.0898 105.514 96.0898 99.3489C96.0898 93.1835 101.586 88.599 110.269 85.1211C117.882 91.8435 127.718 95.5574 137.909 95.5574C148.1 95.5574 157.937 91.8435 165.55 85.1211C174.233 88.599 179.729 93.6578 179.729 99.3489Z" fill="#419057" stroke="#0F2846" stroke-width="8.82345" stroke-miterlimit="10" stroke-linecap="square"/>
</svg>
