<svg width="34" height="35" viewBox="0 0 34 35" fill="none" xmlns="http://www.w3.org/2000/svg">
<path d="M27.3005 7.95839C25.4163 7.08005 23.3763 6.44255 21.2513 6.07422C21.2139 6.07475 21.1783 6.09003 21.1521 6.11672C20.8971 6.58422 20.5996 7.19339 20.4013 7.66089C18.1474 7.3211 15.8552 7.3211 13.6013 7.66089C13.403 7.17922 13.1055 6.58422 12.8363 6.11672C12.8221 6.08839 12.7796 6.07422 12.7371 6.07422C10.6121 6.44255 8.58631 7.08005 6.68797 7.95839C6.67381 7.95839 6.65964 7.97255 6.64547 7.98672C2.79214 13.7526 1.72964 19.3626 2.25381 24.9159C2.25381 24.9442 2.26797 24.9726 2.29631 24.9867C4.84631 26.8567 7.29714 27.9901 9.71964 28.7409C9.76214 28.7551 9.80464 28.7409 9.81881 28.7126C10.3855 27.9334 10.8955 27.1117 11.3346 26.2476C11.363 26.1909 11.3346 26.1342 11.278 26.1201C10.4705 25.8084 9.70547 25.4401 8.95464 25.0151C8.89797 24.9867 8.89797 24.9017 8.94047 24.8592C9.09631 24.7459 9.25214 24.6184 9.40797 24.5051C9.43631 24.4767 9.47881 24.4767 9.50714 24.4909C14.3805 26.7151 19.6363 26.7151 24.453 24.4909C24.4813 24.4767 24.5238 24.4767 24.5521 24.5051C24.708 24.6326 24.8638 24.7459 25.0196 24.8734C25.0763 24.9159 25.0763 25.0009 25.0055 25.0292C24.2688 25.4684 23.4896 25.8226 22.6821 26.1342C22.6255 26.1484 22.6113 26.2192 22.6255 26.2617C23.0788 27.1259 23.5888 27.9476 24.1413 28.7267C24.1838 28.7409 24.2263 28.7551 24.2688 28.7409C26.7055 27.9901 29.1563 26.8567 31.7063 24.9867C31.7346 24.9726 31.7488 24.9442 31.7488 24.9159C32.3721 18.4984 30.7146 12.9309 27.3571 7.98672C27.343 7.97255 27.3288 7.95839 27.3005 7.95839ZM12.0713 21.5301C10.6121 21.5301 9.39381 20.1842 9.39381 18.5267C9.39381 16.8692 10.5838 15.5234 12.0713 15.5234C13.573 15.5234 14.763 16.8834 14.7488 18.5267C14.7488 20.1842 13.5588 21.5301 12.0713 21.5301ZM21.9455 21.5301C20.4863 21.5301 19.268 20.1842 19.268 18.5267C19.268 16.8692 20.458 15.5234 21.9455 15.5234C23.4471 15.5234 24.6371 16.8834 24.623 18.5267C24.623 20.1842 23.4471 21.5301 21.9455 21.5301Z" fill="black"/>
</svg>
