<svg width="33" height="34" viewBox="0 0 33 34" fill="none" xmlns="http://www.w3.org/2000/svg">
<g clip-path="url(#clip0_4489_3328)">
<mask id="mask0_4489_3328" style="mask-type:luminance" maskUnits="userSpaceOnUse" x="0" y="1" width="33" height="33">
<path d="M0.5 1.40625H32.5V33.4062H0.5V1.40625Z" fill="white"/>
</mask>
<g mask="url(#mask0_4489_3328)">
<path fill-rule="evenodd" clip-rule="evenodd" d="M16.5 1.40625C7.66 1.40625 0.5 8.56625 0.5 17.4062C0.5 24.4862 5.08 30.4663 11.44 32.5863C12.24 32.7263 12.54 32.2463 12.54 31.8263C12.54 31.4463 12.52 30.1863 12.52 28.8463C8.5 29.5863 7.46 27.8663 7.14 26.9663C6.96 26.5063 6.18 25.0863 5.5 24.7063C4.94 24.4063 4.14 23.6663 5.48 23.6463C6.74 23.6263 7.64 24.8062 7.94 25.2863C9.38 27.7063 11.68 27.0263 12.6 26.6063C12.74 25.5662 13.16 24.8663 13.62 24.4663C10.06 24.0662 6.34 22.6863 6.34 16.5662C6.34 14.8263 6.96 13.3863 7.98 12.2663C7.82 11.8663 7.26 10.2263 8.14 8.02625C8.14 8.02625 9.48 7.60625 12.54 9.66625C13.82 9.30625 15.18 9.12625 16.54 9.12625C17.9 9.12625 19.26 9.30625 20.54 9.66625C23.6 7.58625 24.94 8.02625 24.94 8.02625C25.82 10.2263 25.26 11.8663 25.1 12.2663C26.12 13.3863 26.74 14.8063 26.74 16.5662C26.74 22.7063 23 24.0662 19.44 24.4663C20.02 24.9663 20.52 25.9263 20.52 27.4263C20.52 29.5662 20.5 31.2863 20.5 31.8263C20.5 32.2463 20.8 32.7463 21.6 32.5863C24.7762 31.5139 27.5362 29.4725 29.4916 26.7494C31.4469 24.0263 32.499 20.7586 32.5 17.4062C32.5 8.56625 25.34 1.40625 16.5 1.40625Z" fill="black"/>
</g>
</g>
<defs>
<clipPath id="clip0_4489_3328">
<rect width="32" height="32" fill="white" transform="translate(0.5 1.40625)"/>
</clipPath>
</defs>
</svg>
