<svg width="41" height="41" viewBox="0 0 41 41" fill="none" xmlns="http://www.w3.org/2000/svg">
<path d="M1.73438 2.18359H21.0564C31.1033 2.18359 39.2603 10.5749 39.2603 20.9105C39.2603 31.2461 31.1033 39.6374 21.0564 39.6374H19.9393C9.89235 39.6374 1.73538 31.2461 1.73538 20.9105L1.73438 2.18359Z" fill="#D1EBD8"/>
<path d="M21.0586 40.9102H19.9414C9.22105 40.9102 0.5 31.9386 0.5 20.9102V0.910156H21.0586C31.7789 0.910156 40.5 9.88176 40.5 20.9102C40.5 31.9386 31.7789 40.9102 21.0586 40.9102ZM2.97409 3.45533V20.9102C2.97409 30.5343 10.5851 38.365 19.9414 38.365H21.0586C30.4139 38.365 38.0259 30.5354 38.0259 20.9102C38.0259 11.285 30.4149 3.45533 21.0586 3.45533H2.97409Z" fill="#0E5723"/>
<g style="mix-blend-mode:multiply">
<path d="M30.6315 16.0465C29.407 14.7868 27.777 14.0919 26.0446 14.0898H21.519C17.9469 14.0898 15.0392 17.079 15.0352 20.7538C15.0352 21.0873 15.0572 21.4146 15.1024 21.7377C15.1245 21.8823 15.2469 21.9897 15.3885 21.9897H16.8599C17.0395 21.9897 17.176 21.8214 17.1419 21.6397C17.0887 21.3506 17.0606 21.0563 17.0606 20.7558C17.0606 20.5225 17.0787 20.2943 17.1118 20.0692C17.1379 19.903 17.171 19.7357 17.2122 19.5756C17.4219 18.7713 17.8364 18.0558 18.3975 17.491C18.5872 17.2979 18.793 17.1234 19.0138 16.9685C19.7284 16.4688 20.5906 16.1755 21.517 16.1755H21.519L26.0426 16.1776C27.234 16.1776 28.3541 16.6557 29.1952 17.523C30.0363 18.3893 30.499 19.5405 30.499 20.7661C30.497 22.857 29.1239 24.6804 27.1607 25.2029C26.8305 25.2907 26.5665 25.5426 26.4551 25.8751L25.8589 27.6675L24.7368 26.1662C24.3514 25.65 23.7552 25.3475 23.1209 25.3475H21.517C21.1025 25.3475 20.697 25.2907 20.3075 25.1792C20.171 25.1389 20.0285 25.1182 19.887 25.1182H17.0676C16.89 25.1182 16.7986 25.3423 16.9251 25.4714L16.9291 25.4755C18.1536 26.7372 19.7816 27.4321 21.514 27.4321H23.1239L24.8954 29.8038C25.1744 30.1776 25.603 30.3893 26.0506 30.3893C26.1279 30.3893 26.2082 30.3831 26.2875 30.3707C26.8165 30.2788 27.2551 29.8988 27.4317 29.3753L28.2046 27.0542C30.773 26.1218 32.5214 23.6138 32.5244 20.7703C32.5264 18.9861 31.853 17.3093 30.6285 16.0475L30.6315 16.0465Z" fill="#0E5723"/>
<path d="M19.9603 24.5975H14.7331C11.1931 24.5975 8.3125 21.6341 8.3125 17.9924C8.3125 14.3507 11.174 11.4297 14.6919 11.4297H20.4591C21.0192 11.4297 21.4729 11.8964 21.4729 12.4725C21.4729 13.0487 21.0192 13.5154 20.4591 13.5154H14.6919C12.2921 13.5154 10.3399 15.5236 10.3399 17.9924C10.3399 20.4612 12.3112 22.5128 14.7341 22.5128H19.9613C21.0533 22.5128 21.9406 21.599 21.9406 20.4767C21.9406 19.98 21.5481 19.5763 21.0654 19.5763H16.5578C15.9977 19.5763 15.5441 19.1096 15.5441 18.5335C15.5441 17.9573 15.9977 17.4906 16.5578 17.4906H21.0654C22.6652 17.4906 23.967 18.8298 23.967 20.4756C23.967 22.7482 22.1694 24.5975 19.9603 24.5975Z" fill="#0E5723"/>
<path d="M18.3995 17.4893C17.8384 18.0541 17.4239 18.7696 17.2141 19.574H16.5567C15.9976 19.574 15.543 19.1062 15.543 18.5311C15.543 17.956 15.9976 17.4883 16.5567 17.4883L18.3995 17.4893Z" fill="#89F0A6"/>
</g>
</svg>
