<svg width="21" height="21" viewBox="0 0 21 21" fill="none" xmlns="http://www.w3.org/2000/svg">
<path d="M7.45201 4.93406C7.27586 4.75837 7.0583 4.62988 6.8194 4.56045C6.58049 4.49101 6.32795 4.48287 6.08507 4.53677C5.84219 4.59067 5.6168 4.70488 5.4297 4.86885C5.2426 5.03283 5.09981 5.24129 5.01451 5.475L0.0935764 19.0106C0.0127372 19.2338 -0.0133748 19.4732 0.0174321 19.7086C0.048239 19.944 0.135066 20.1685 0.270624 20.3634C0.406182 20.5583 0.586516 20.7178 0.796486 20.8286C1.00646 20.9394 1.23994 20.9981 1.47733 21C1.65211 20.9988 1.82534 20.9671 1.9892 20.9062L15.5239 15.9844C15.7577 15.8992 15.9662 15.7565 16.1303 15.5694C16.2944 15.3824 16.4087 15.157 16.4627 14.9141C16.5167 14.6712 16.5086 14.4186 16.4393 14.1797C16.3699 13.9407 16.2414 13.7231 16.0658 13.5469L7.45201 4.93406ZM3.1067 15.1059L4.9067 10.1569L10.843 16.0931L5.89295 17.8931L3.1067 15.1059ZM11.9998 6.75C12.0139 6.24297 12.1367 5.74488 12.3598 5.28937C12.8567 4.29656 13.7942 3.75 14.9998 3.75C15.6279 3.75 16.0311 3.53531 16.2795 3.07406C16.4103 2.81601 16.4854 2.53333 16.4998 2.24437C16.5006 2.04546 16.5803 1.85499 16.7215 1.71487C16.8627 1.57474 17.0537 1.49644 17.2526 1.49719C17.4515 1.49793 17.642 1.57767 17.7821 1.71885C17.9223 1.86003 18.0006 2.05109 17.9998 2.25C17.9998 3.45563 17.2011 5.25 14.9998 5.25C14.3717 5.25 13.9686 5.46469 13.7201 5.92594C13.5893 6.18399 13.5143 6.46667 13.4998 6.75562C13.4995 6.85412 13.4797 6.95157 13.4417 7.04242C13.4036 7.13328 13.3481 7.21575 13.2782 7.28513C13.2083 7.35451 13.1254 7.40945 13.0342 7.4468C12.9431 7.48415 12.8455 7.50318 12.747 7.50281C12.6485 7.50244 12.5511 7.48268 12.4602 7.44465C12.3694 7.40661 12.2869 7.35106 12.2175 7.28115C12.1481 7.21125 12.0932 7.12836 12.0558 7.03723C12.0185 6.94609 11.9995 6.84849 11.9998 6.75ZM9.74983 3.75V1.5C9.74983 1.30109 9.82884 1.11032 9.96949 0.96967C10.1101 0.829018 10.3009 0.75 10.4998 0.75C10.6987 0.75 10.8895 0.829018 11.0302 0.96967C11.1708 1.11032 11.2498 1.30109 11.2498 1.5V3.75C11.2498 3.94891 11.1708 4.13968 11.0302 4.28033C10.8895 4.42098 10.6987 4.5 10.4998 4.5C10.3009 4.5 10.1101 4.42098 9.96949 4.28033C9.82884 4.13968 9.74983 3.94891 9.74983 3.75ZM19.2804 11.4694C19.3501 11.5391 19.4053 11.6218 19.4429 11.7128C19.4806 11.8038 19.5 11.9014 19.4999 11.9999C19.4999 12.0984 19.4804 12.1959 19.4427 12.2869C19.405 12.3779 19.3497 12.4605 19.28 12.5302C19.2103 12.5998 19.1276 12.655 19.0366 12.6926C18.9455 12.7303 18.848 12.7497 18.7495 12.7496C18.651 12.7496 18.5535 12.7301 18.4625 12.6924C18.3715 12.6547 18.2888 12.5994 18.2192 12.5297L16.7192 11.0297C16.5785 10.889 16.4994 10.6981 16.4994 10.4991C16.4994 10.3 16.5785 10.1092 16.7192 9.96844C16.8599 9.82771 17.0508 9.74865 17.2498 9.74865C17.4488 9.74865 17.6397 9.82771 17.7805 9.96844L19.2804 11.4694ZM19.737 7.46156L17.487 8.21156C17.2983 8.27447 17.0923 8.25983 16.9144 8.17087C16.7365 8.0819 16.6012 7.92591 16.5383 7.73719C16.4754 7.54847 16.49 7.34249 16.579 7.16457C16.6679 6.98664 16.8239 6.85134 17.0126 6.78844L19.2626 6.03844C19.4514 5.97553 19.6573 5.99017 19.8353 6.07913C20.0132 6.1681 20.1485 6.32409 20.2114 6.51281C20.2743 6.70153 20.2597 6.90751 20.1707 7.08543C20.0817 7.26336 19.9257 7.39866 19.737 7.46156Z" fill="#6B82A2"/>
</svg>
