<svg width="34" height="35" viewBox="0 0 34 35" fill="none" xmlns="http://www.w3.org/2000/svg">
<path d="M16.9909 3.23828C14.189 3.23828 11.45 4.06914 9.12031 5.6258C6.79062 7.18245 4.97484 9.39498 3.9026 11.9836C2.83036 14.5722 2.54981 17.4207 3.09643 20.1687C3.64306 22.9168 4.9923 25.4411 6.97355 27.4223C8.95479 29.4035 11.479 30.7528 14.2271 31.2994C16.9752 31.846 19.8236 31.5655 22.4122 30.4932C25.0009 29.421 27.2134 27.6052 28.77 25.2755C30.3267 22.9458 31.1576 20.2069 31.1576 17.4049C31.1576 15.5446 30.7911 13.7024 30.0792 11.9836C29.3672 10.2648 28.3237 8.7031 27.0082 7.3876C25.6927 6.07211 24.131 5.0286 22.4122 4.31665C20.6935 3.60471 18.8513 3.23828 16.9909 3.23828ZM21.4959 24.7036C21.443 24.836 21.3624 24.9555 21.2596 25.0541C21.1567 25.1527 21.0339 25.2282 20.8994 25.2754C20.765 25.3227 20.622 25.3406 20.48 25.328C20.338 25.3153 20.2004 25.2725 20.0764 25.2023L16.2301 22.2131L13.7623 24.4911C13.705 24.5334 13.638 24.5606 13.5675 24.5703C13.4969 24.5799 13.4251 24.5717 13.3586 24.5464L13.8317 20.3119L13.8459 20.3247L13.8558 20.2411C13.8558 20.2411 20.7762 13.9398 21.0581 13.672C21.3443 13.4043 21.2494 13.3462 21.2494 13.3462C21.2664 13.0204 20.738 13.3462 20.738 13.3462L11.5679 19.2452L7.74998 17.9447C7.74998 17.9447 7.16348 17.735 7.10823 17.2718C7.05014 16.8128 7.76839 16.5634 7.76839 16.5634L22.9508 10.5313C22.9508 10.5313 24.1989 9.97595 24.1989 10.8968L21.4959 24.7036Z" fill="black"/>
</svg>
