<svg width="22" height="22" viewBox="0 0 22 22" fill="none" xmlns="http://www.w3.org/2000/svg">
<g clip-path="url(#clip0_4485_3053)">
<path d="M12.4046 7.65457C11.8799 8.02865 11.2378 8.2487 10.5443 8.2487C8.77235 8.2487 7.33594 6.81228 7.33594 5.04036C7.33594 3.26845 8.77235 1.83203 10.5443 1.83203C11.6929 1.83203 12.7005 2.43558 13.2672 3.34283M5.5026 18.412H7.89537C8.20735 18.412 8.51741 18.4491 8.81985 18.5232L11.3481 19.1377C11.8966 19.2713 12.4682 19.2843 13.0225 19.1766L15.8179 18.6328C16.5562 18.489 17.2356 18.1353 17.7679 17.6175L19.7457 15.6936C20.3104 15.1451 20.3104 14.2551 19.7457 13.7057C19.2372 13.211 18.4319 13.1553 17.8566 13.5748L15.5517 15.2565C15.2216 15.4978 14.8199 15.6277 14.4068 15.6277H12.181H13.5978C14.3963 15.6277 15.0432 14.9984 15.0432 14.2216V13.9404C15.0432 13.2954 14.5919 12.733 13.9489 12.5771L11.7622 12.0453C11.4063 11.959 11.0418 11.9154 10.6754 11.9154C9.79105 11.9154 8.19017 12.6476 8.19017 12.6476L5.5026 13.7715M18.3359 5.95703C18.3359 7.72895 16.8995 9.16536 15.1276 9.16536C13.3557 9.16536 11.9193 7.72895 11.9193 5.95703C11.9193 4.18511 13.3557 2.7487 15.1276 2.7487C16.8995 2.7487 18.3359 4.18511 18.3359 5.95703ZM1.83594 13.382V18.6987C1.83594 19.2121 1.83594 19.4688 1.93584 19.6649C2.02373 19.8374 2.16397 19.9775 2.33645 20.0654C2.53253 20.1654 2.78922 20.1654 3.3026 20.1654H4.03594C4.54932 20.1654 4.80601 20.1654 5.0021 20.0654C5.17458 19.9775 5.31481 19.8374 5.4027 19.6649C5.5026 19.4688 5.5026 19.2121 5.5026 18.6987V13.382C5.5026 12.8686 5.5026 12.6119 5.4027 12.4159C5.31481 12.2433 5.17458 12.1032 5.0021 12.0153C4.80601 11.9154 4.54932 11.9154 4.03594 11.9154H3.3026C2.78922 11.9154 2.53253 11.9154 2.33645 12.0153C2.16397 12.1032 2.02373 12.2433 1.93584 12.4159C1.83594 12.6119 1.83594 12.8686 1.83594 13.382Z" stroke="#419057" stroke-width="2" stroke-linecap="round" stroke-linejoin="round"/>
</g>
<defs>
<clipPath id="clip0_4485_3053">
<rect width="22" height="22" fill="white"/>
</clipPath>
</defs>
</svg>
