<svg width="28" height="29" viewBox="0 0 28 29" fill="none" xmlns="http://www.w3.org/2000/svg">
<path d="M4 0.40625C1.79375 0.40625 0 2.2 0 4.40625V24.4062C0 26.6125 1.79375 28.4062 4 28.4062H24C26.2062 28.4062 28 26.6125 28 24.4062V4.40625C28 2.2 26.2062 0.40625 24 0.40625H4ZM22.5688 5.65625L16.0812 13.0688L23.7125 23.1562H17.7375L13.0625 17.0375L7.70625 23.1562H4.7375L11.675 15.225L4.35625 5.65625H10.4812L14.7125 11.25L19.6 5.65625H22.5688ZM20.2062 21.3813L9.5875 7.3375H7.81875L18.5562 21.3813H20.2H20.2062Z" fill="black"/>
</svg>
