<svg width="22" height="23" viewBox="0 0 22 23" fill="none" xmlns="http://www.w3.org/2000/svg">
<g clip-path="url(#clip0_4647_2693)">
<path fill-rule="evenodd" clip-rule="evenodd" d="M11.4225 1.45976C11.7479 1.14362 12.2756 1.14362 12.601 1.45976L19.2677 7.93595C19.5931 8.25209 19.5931 8.76467 19.2677 9.08079L14.5117 13.7008V15.7941C14.5117 17.1354 13.3925 18.2227 12.0117 18.2227H3.67839C1.3772 18.2227 -0.488281 16.4105 -0.488281 14.175V6.88932C-0.488281 5.10097 1.0041 3.65123 2.84506 3.65123H9.16656L11.4225 1.45976ZM7.49988 5.27028H2.84506C1.92458 5.99515 1.17839 5.99515 1.17839 6.88932V14.175C1.17839 15.5163 2.29768 16.6036 3.67839 16.6036H12.0117C12.472 16.6036 12.8451 16.2412 12.8451 15.7941V13.3661V13.3649V9.31789C12.8451 8.8708 12.472 8.50837 12.0117 8.50837H6.17897H6.17782H3.67839C2.75791 8.50837 2.01172 7.7835 2.01172 6.88932V6.48456C2.01172 6.03748 2.38482 5.67504 2.84506 5.67504C3.30529 5.67504 3.67839 6.03748 3.67839 6.48456V6.88932H5.83322L7.49988 5.27028ZM8.19023 6.88932H12.0117C13.3925 6.88932 14.5117 7.97664 14.5117 9.31789V11.4112L17.4999 8.50837L12.0117 3.17702L10.101 5.03317L8.19023 6.88932Z" fill="black" stroke="black" stroke-width="0.1"/>
</g>
<defs>
<clipPath id="clip0_4647_2693">
<rect width="22" height="22" fill="white" transform="translate(0 0.90625)"/>
</clipPath>
</defs>
</svg>
